<svg id="Laag_1" data-name="Laag 1" xmlns="http://www.w3.org/2000/svg" viewBox="0 0 333.79 187.44"><defs><style>.cls-1{fill:#99372c;}.cls-2{fill:#37313f;}.cls-3{fill:#b84232;}</style></defs><title>bladkader</title><path class="cls-1" d="M375.69,303.12c-1.32.38-2.67.88-3.83,1.29a16.87,16.87,0,0,1-3.72.65,72.9,72.9,0,0,1-7.8-.24c-5.22-.06-9.91.45-14-1.17-3.47-1.31-7.24-2.72-11-4.15-.5.32-.65,1-.32,1.19a.72.72,0,0,1,.1.22c.68,1.89,1.36,3.71,1.95,5.38.9,1.91,2,3.39,2.87,5.16,1.93,3.46,4.35,6.6,6.39,9.81a31.84,31.84,0,0,1,4.62,9.87c.2.83.31,1.66.43,2.49a8.45,8.45,0,0,1-.13,2.29,18.36,18.36,0,0,0-.35,5.33c.46,3.7,2.25,7.15,3.79,10.24.76,1.55,1.51,3.07,2.19,4.58.7,1.68,1.5,3.12,2.09,4.56a13,13,0,0,1,.65,2.05,3,3,0,0,1,0,1.49c-.24.59-1.79.93-3.18,1.17a21.26,21.26,0,0,1-2.11.42,4.6,4.6,0,0,0-2.29.93c-1.2,1.27-1.14,2.75-1.24,4a18.74,18.74,0,0,0,.37,3.85,29.42,29.42,0,0,0,1.09,3.6c.72,2.14,1.15,4.42,1.94,6.37a26,26,0,0,1,1.28,4.42,21.45,21.45,0,0,1-2.1-.6c-4.07-1.3-8.07-3.26-12.19-4.95a34.66,34.66,0,0,0-6.51-2,9.43,9.43,0,0,0-6.55.7c-1.66.92-3,1.8-4.65,1.9a9.63,9.63,0,0,1-5.18-1.25c-3.48-1.78-6.83-4.71-10.62-6.68l-2.63-1.54a15.87,15.87,0,0,1-2.35-1.63,12.7,12.7,0,0,0-6.56-2.13,24.46,24.46,0,0,1-5.31-.89,13.44,13.44,0,0,1-4.25-2.45c-2.37-2.14-3.87-4.88-5.53-7.51s-3.49-5-5.22-7.22c-.88-1.15-1.67-2.22-2.58-3.29a35.23,35.23,0,0,0-2.86-2.87c-.59-.51-1.08-1-1.58-1.54,0-.64-1-1.25-1-1-.42.41,0,2.64,0,2.19a12.64,12.64,0,0,1-1,5.1c-1.14,2.28-3.61,4.08-5.64,6a28.53,28.53,0,0,0-5.66,6.05c-1.52,2.17-2.62,4.42-3.86,6.47a19.16,19.16,0,0,0-1.74,3.3,9.59,9.59,0,0,0-.2,3.7c0,2.31.56,4.62.38,6.6a3.42,3.42,0,0,1-.67,1.87c-1-.24-1.92-.44-2.86-.63a14.78,14.78,0,0,1-4.77-1.18c-2.17-1-3.79-1.75-4.52-2.1h-.05a2.07,2.07,0,0,0-.25-.13l0,0s0,.05.1.05c1.08.61,2.21,1.15,3.24,1.71a16.19,16.19,0,0,0,3.45,1.64c1.33.32,2.56.45,3.74.83.4.12.74.21,1.14.29a17.41,17.41,0,0,1-2.8,1.23,43.32,43.32,0,0,0-11.39,5.56,24.48,24.48,0,0,0-3.51,3.22l-.21.21c-1.25-1.53-2.5-3-3.6-4.35a42.64,42.64,0,0,1-5.53-8.87,10.92,10.92,0,0,1-.55-1.22l.1,0c2.24.25,4.32.82,5.48.39a4.2,4.2,0,0,1,1.7-.14c-1.23-.28-2.3.26-3.49.06s-2.58-.57-3.88-.72h-.1c-1-2.46-1.51-4.87-.8-6.94.7-2.65,4.5-3.84,6.32-6.95a5.65,5.65,0,0,0,.52-2.44,13.36,13.36,0,0,0,0-2.39,9.51,9.51,0,0,0-1.1-2.28,8.44,8.44,0,0,1-.45-2,57.76,57.76,0,0,1-3.77-8.29c-.54-1.3-1.08-2.62-1.7-3.92a27.82,27.82,0,0,0-2.19-3.75c-1.47-2.29-2.17-4.53-1.4-6.63,1.49-4.2,6-7.45,9.41-10.32a10.27,10.27,0,0,0,2.47-2.37,5.09,5.09,0,0,0,.52-2.85,11.17,11.17,0,0,0-1.54-4.65,3.72,3.72,0,0,0,1.39-.94,4.41,4.41,0,0,0,.66-2.59,8.39,8.39,0,0,1,0-1c-.26,1.18-.09,2.52-1,3.48a3.43,3.43,0,0,1-1.27.68,48.27,48.27,0,0,0-4-5.48c-.48-.54-.79-1-1-1.36,1.31,2.36,3.09,4.64,4.18,7.09-.76.12-1.56.2-2.28.33-1.89.34-3.43.64-4.74.85-1.56.32-3,.49-4.57.88a4.71,4.71,0,0,0-3.29,2.59,22.4,22.4,0,0,1-1.11,2.9c-.45.86-1.62,1.06-2.88,1s-2.5-.22-3.78-.23a15.3,15.3,0,0,0-3.57.55l-3,.64c-.62.14-1.2.28-1.77.36-.18-.74-.4-1.48-.66-2.23-1.14-2.68-2.09-5.24-2.94-7.91a23.43,23.43,0,0,1-1.14-3.79,11.77,11.77,0,0,1,.35-3.79c.33-1.32.66-2.61,1-3.83a5.47,5.47,0,0,1,.75-1.71,5.89,5.89,0,0,0,1.09-2.15c.43-2.95-.81-5,.88-7.2,2.78-4.62,5.16-9.28,7.32-13.41.48-1.08,1.1-1.92,1.62-3.26a4.86,4.86,0,0,1,1.24-2.75c.65-1.1.93-2,1.39-2.95s.83-1.91,1.23-2.69c1.06-1.62,2.1-3.21,3.13-4.75.48-.67,1.21-1.63,1.11-2.36a7.9,7.9,0,0,0-.16-1.94c-.11-.56-.21-1.06-.31-1.53l1.77-1.06c3.7-2.21,8.3-3.17,12.23-4.2,1.85-.49,3.76-.21,6-.88s3.86-1.74,5.44-2.15c.81-.24,1.69-.3,2.64-.55s1.72-.46,2.57-.73a7.7,7.7,0,0,1,1-.26c-.18.16-.33.32-.47.45-1.15,1.18-1.7,1.84-1.7,1.84.85-.83,1.77-1.67,2.71-2.45a7.69,7.69,0,0,1,.79-.21c0-.32.81-1,.66-1a44.59,44.59,0,0,1,3.91-2.83c1.47-.94,3-1.8,4.54-2.81s2.92-2,4.4-2.89c3-1.71,6.2-3.27,9.11-5.24s5.78-3.81,8.58-5.93,5.14-4.5,7.71-6.32a28.27,28.27,0,0,1,7.82-4c5.3-1.82,10.41-2.28,15.24-3.4l6.89-1.52A34.34,34.34,0,0,1,319,209.7a26.11,26.11,0,0,0,5.5-.58,15,15,0,0,1,4.56-.6,28.07,28.07,0,0,1,5.84.88,9.61,9.61,0,0,1-1,4.89c-.81,2.13-1.85,4.08-3.47,5.11-.82.51-1.75,1-2.65,1.53a6.92,6.92,0,0,0-2.62,2.42c-.6,1.44-.12,2.52-.16,3.3s-.37,1.26-1.09,1.81c-1.49.95-3.31,1.91-4.88,2.82s-3.09,1.94-4.58,3a17.86,17.86,0,0,0-4,3.52,11.43,11.43,0,0,0-2.13,4.41,12.83,12.83,0,0,0-.46,4.08c.17,1.29.66,2.27.77,3.23-.07,0,.46,1.13.54.78a5.35,5.35,0,0,0,.66.2,11.28,11.28,0,0,0,1.54.12c2,0,4.23-.11,6.05-1.73s2.43-3.66,3.28-5.33a4.38,4.38,0,0,1,3.67-3,20.77,20.77,0,0,0,5.07-.92,18.16,18.16,0,0,0,4.59-2.2,10.91,10.91,0,0,0,3.34-3.74c.66-1.09,1.25-2.18,1.9-3.1a1.36,1.36,0,0,0,.38.3,26.39,26.39,0,0,0,5.83,3c4.12,1.55,8.42,2,12.17,3.33a25.92,25.92,0,0,0,2.92,1.08l2.86.79c1.7.47,3.76,1.76,5.61,1.7,1,.13,1.23.4,2.17,1.21a6.22,6.22,0,0,0,2.83,1,12.08,12.08,0,0,1,4.48,2.17c3,1.94,6,2.59,8.47,3.8,1.15.57,2.29,1.19,3.45,1.77a8,8,0,0,1,1.35.8,6.67,6.67,0,0,1-.78.87c-1.26,1.23-3.24.6-4.95,1.05a22.65,22.65,0,0,0-5,1.47,3,3,0,0,0-2,2.27,4.5,4.5,0,0,0,1.09,3.18,22.4,22.4,0,0,0,4.11,3.78c1.38,1.08,2.65,2.22,3.93,3.28,2.54,2.22,5.31,4,6.94,6.34.38.47.23.44.05.46a11.89,11.89,0,0,0-1.85-.32c-1.08-.14-2.22-.27-3.39-.4a4.06,4.06,0,0,0-3,.3c-.67.52-1.33,1-2,1.52a5.08,5.08,0,0,1-2.75,1.13,9.17,9.17,0,0,1-.45-1.81,6.61,6.61,0,0,1,.24-2,1.3,1.3,0,0,0-.14-.81c.39,1-.52,1.82-.27,2.9a10,10,0,0,0,.32,1.7s0,0-.07,0a1.18,1.18,0,0,1-.51-.86,2.15,2.15,0,0,1-.09-.32c.07.4.1,1,.58,1.3a.1.1,0,0,0,.11,0,5.11,5.11,0,0,0,.5,1.19,9.76,9.76,0,0,0,4.31,3.77c1.62.86,3.22,1.14,4.59,2,.62.37,1.25.78,1.84,1.19-.41.75-.81,1.5-1.14,2.28a29.63,29.63,0,0,0-1.48,4.47,15.08,15.08,0,0,1-1.2,4.3,9.18,9.18,0,0,1-5.86,5.06C380.94,301.63,378.27,302.32,375.69,303.12Z" transform="translate(-159.21 -208.52)"/><path class="cls-2" d="M291.55,289.2l-1.2-.48.63,1.4a4.64,4.64,0,0,0-.54-3.06,10,10,0,0,0-2.85-3c-1.23-.94-2.71-1.83-4.33-2.83a49,49,0,0,1-4.91-3.66c-3.39-2.7-7.28-5.86-11.33-9.25s-8.91-6.34-14-9.75a53.53,53.53,0,0,0-7.81-4.51L236.41,250c-5.53-2.56-12.73-3.62-20.78-3.42-4,.08-8.44.5-12.8.74s-8.83.58-13.42,1.26-9.51,2.14-14.44,3.09a43,43,0,0,1-7.21.74,37.19,37.19,0,0,0-3.85.37,13.15,13.15,0,0,0-4.7,1.53,13,13,0,0,1,1.22-.69,16.24,16.24,0,0,1,3.52-1.16,47.9,47.9,0,0,1,4.82-.8,41,41,0,0,0,5.68-1c2.15-.54,4.58-1.29,7.34-2.12a79.46,79.46,0,0,1,9.15-2.36c6.41-1.3,13.22-2,20.41-2.75,7.39-.89,15.41-1.12,22.71.64a36.62,36.62,0,0,1,5.3,1.77l4.83,2.25a73.18,73.18,0,0,1,10,5.36c3.2,2.29,6.18,4.53,9.43,7a84.67,84.67,0,0,1,9.42,8.47q4.54,4.56,9.43,9.38c1.33,1.38,3.42,2.77,5.25,4.43a15.27,15.27,0,0,1,2.62,2.94,5.36,5.36,0,0,1,.82,4.49l-.72-1.58Z" transform="translate(-159.21 -208.52)"/><path class="cls-2" d="M253.17,253.78s.92.09,2.53.14,4,0,6.33,1.28a11.68,11.68,0,0,0,4.31,1.53,25.91,25.91,0,0,1,5.26,1.82c1.78.8,3.62,1.76,5.62,2.48a43.41,43.41,0,0,0,6.77,1.72c4.92.94,10.49,1.38,16.4,2.63a68.07,68.07,0,0,0,8.78,1.1c1.57.14,3.18.32,4.82.6s3.27.78,4.69,1c3,.58,6.33.66,9.77,1.27,1.76.3,3.4.87,5,1.26l5,1.28a35.07,35.07,0,0,1,5,1.75c1.63.78,3.13,1.66,4.73,2.5a17.58,17.58,0,0,1,4.33,3.14,6.87,6.87,0,0,1,2,4.5l-.15-.55a6.32,6.32,0,0,0-.65-1.51c-.68-1.24-2.33-2.68-5.08-3.85L343.85,276a30.3,30.3,0,0,0-5.45-1.52l-6.65-1.21a38,38,0,0,0-7.16-1,54.35,54.35,0,0,1-8.36-.93,52.54,52.54,0,0,0-8.37-1.2,57.86,57.86,0,0,1-9.36-1.35c-2.94-.68-6.09-1.18-9.31-1.76a85.24,85.24,0,0,1-9.74-2.23,36.48,36.48,0,0,1-8.9-4.17,30.51,30.51,0,0,0-4.05-2c-.73-.29-1.38-.48-2.25-.75a9.32,9.32,0,0,1-2.36-1.2,9.32,9.32,0,0,0-3.8-1.92C256.59,254.33,254.89,254.16,253.17,253.78Z" transform="translate(-159.21 -208.52)"/><path class="cls-2" d="M279.13,278s.8.09,2.27.35a40.12,40.12,0,0,1,6.22,1.6,27.54,27.54,0,0,1,8.61,4.89c3,2.45,5.66,6.15,7.95,10.21,1.21,2,2.44,4.13,3.92,6.16s3.32,4.08,4.92,6.72a20,20,0,0,1,1.9,4.22,15.6,15.6,0,0,0,1.47,3.73,62.78,62.78,0,0,0,5.49,7.32,23.51,23.51,0,0,1,4.85,9.13,30.51,30.51,0,0,0,1.45,4.51,19.39,19.39,0,0,0,2.73,4.13c2.29,2.69,4.95,5.65,6.25,8.95a42.93,42.93,0,0,0,2.45,4.89c.5.84,1.24,1.63,1.7,2.3a2.37,2.37,0,0,1,.44,1.88,2.35,2.35,0,0,0-.67-1.59c-.4-.49-1.38-1.3-2.24-2.44a37.11,37.11,0,0,1-2.44-3.7,33.15,33.15,0,0,0-2.75-4.16c-1.12-1.38-2.6-2.79-4.21-4.43a21,21,0,0,1-4.42-6c-1-2.33-1.53-4.67-2.55-6.67a32.13,32.13,0,0,0-4.47-6.15,39.7,39.7,0,0,1-5.29-7.15,23.64,23.64,0,0,1-1.57-4.18,16.78,16.78,0,0,0-1.69-3.56c-1.42-2.28-3.51-4.67-5.13-7.34-3.26-5.25-5.17-10.87-9.38-15C291,282.35,285.3,279.69,279.13,278Z" transform="translate(-159.21 -208.52)"/><path class="cls-2" d="M273.39,270.52s-.53.54-1.46,1.69a6,6,0,0,0-1.26,2.38,5.74,5.74,0,0,0,.35,3.16c.72,2.17,1.76,4.89,2.62,8,.5,1.55,1.15,3.18,1.6,5.06a15.16,15.16,0,0,1,0,6.19,37,37,0,0,1-1.86,6.48A28.21,28.21,0,0,1,270,310.1c-3,4.31-7.15,8.07-11,12a64.41,64.41,0,0,0-10.18,13.05c-3,4.73-5.67,9.73-8.94,14.44l2.91-6.89c1.93-4.37,4.22-10.91,9.67-18,2.73-3.59,6.38-7,9.9-10.66a53.27,53.27,0,0,0,4.88-5.85,30.44,30.44,0,0,0,3.48-6.74,27,27,0,0,0,2-7.34c.35-2.37-.47-4.81-1.06-7.47s-1.08-5.21-1.59-7.83a7.56,7.56,0,0,1,0-4.46A11.1,11.1,0,0,1,273.39,270.52Z" transform="translate(-159.21 -208.52)"/><path class="cls-2" d="M259.5,261.78a3.66,3.66,0,0,1,1.18.66c.65.58,1.14,1.94.82,3.87s-1.26,4.3-2.25,6.91a11.81,11.81,0,0,1-2.29,4.29c-1.33,1.55-3.7,2.28-5.38,3a39.56,39.56,0,0,0-5.19,3,57.63,57.63,0,0,1-6.22,3.16,131.41,131.41,0,0,0-13,6.51,43,43,0,0,0-6,4.2,30.94,30.94,0,0,0-4.85,5.13c-2.9,3.69-5.29,7.75-8.39,11.45,0,0,1.12-1.91,2.88-5.4.91-1.74,2-3.88,3.52-6.31a29.37,29.37,0,0,1,6.93-7.71,59.54,59.54,0,0,1,11.48-7c2.15-1.06,4.39-2.08,6.67-3.1a47.81,47.81,0,0,0,6.55-3.31c1.09-.65,2.23-1.35,3.51-2s2.74-1,3.82-1.44c2.13-.71,3.23-2.4,4.18-4.54a62,62,0,0,0,2.94-6.33C261.14,264.85,261.28,262.64,259.5,261.78Z" transform="translate(-159.21 -208.52)"/><path class="cls-2" d="M263,252.4a4.75,4.75,0,0,0,1.22-.26,9.64,9.64,0,0,0,2.81-1.76,34,34,0,0,1,3.88-3.15,24.39,24.39,0,0,0,4.75-4c1.57-1.62,3-3.62,5.07-5.52a27.06,27.06,0,0,1,7.05-4.9c5.31-2.58,10.84-2.46,16.09-6l-.85.7a22.32,22.32,0,0,1-2.59,1.68c-2.32,1.33-5.83,2.26-9.82,3.77a25.37,25.37,0,0,0-6.14,3.34,34.48,34.48,0,0,0-5.89,5.53,28.55,28.55,0,0,1-7.09,6,28,28,0,0,0-3.79,2.61C266.4,251.34,264.78,252.44,263,252.4Z" transform="translate(-159.21 -208.52)"/><path class="cls-3" d="M492.07,243.87a5.14,5.14,0,0,0-1.62-.4,20.77,20.77,0,0,0-3.27.05c-.94.09-1.79.15-2.58.24a21.35,21.35,0,0,0-4.4-2.1,42,42,0,0,0-5.47-.53,39.78,39.78,0,0,1-5-1.07,19.42,19.42,0,0,0-5.4-.59,43.64,43.64,0,0,1-5-.65c-1.64-.32-3.36-.41-5-.62a26.87,26.87,0,0,0-5,0c-2.32.09-4.49.17-6.54.28l-2.3.15c-1.72.16-3.32.29-4.73.38-.8.23-1.59.43-2.35.63-2.61.67-5.15,1.29-7.71,1.91a46,46,0,0,0-11.16,4.28c-3.3,1.83-6.2,3.69-8.91,5.1-1.2.64-2.42,1.21-3.51,1.79-.21,0-.39.12-.57.16a36.59,36.59,0,0,0-6.15,2.34,21.94,21.94,0,0,0-2.91,1.79,21.5,21.5,0,0,0-2.5,2.45c-1.56,1.77-2.88,3.46-4.35,5.11a26.44,26.44,0,0,0-2.11,2.76,13.26,13.26,0,0,0-.91,1.66c-.24.5-.47,1-.7,1.52-.47,1.05-.93,2-1.36,3a17.72,17.72,0,0,1-1.4,2.79l-.83,1.36-.42.69a10,10,0,0,0-.56,1,23.29,23.29,0,0,0-1.81,5.18l2.8-1.14c.76-.37,1.49-.71,2.23-1a17.81,17.81,0,0,1,2.84-1.15,24.48,24.48,0,0,1,2.87-.81,5.92,5.92,0,0,1,1.77-.13,7.91,7.91,0,0,1-.85,1.76c-.54.93-1.16,1.85-1.78,2.77s-1.25,1.84-1.84,2.83c-.27.47-.58.95-.85,1.5a9.17,9.17,0,0,0-.78,2,10.6,10.6,0,0,0-.13,1.36c.07.39-.13,1.06.32,1a4.85,4.85,0,0,0,1.88.15,11.67,11.67,0,0,0,2.52-.56c1.64-.51,3.15-1.19,4.56-1.68l8.08-2.49c1.23-.39,2.48-.69,3.59-1.12.4-.15.8-.28,1.21-.44a9.91,9.91,0,0,1-.59,1.06,33.09,33.09,0,0,1-2.09,3,16.15,16.15,0,0,0-1.91,3.31c-1,2.31-2.17,4.5-3,6.83a60.89,60.89,0,0,0-2,7c-.51,2.29-1,4.54-1.38,6.8a38.81,38.81,0,0,0-.75,6.61,12.74,12.74,0,0,0,0,1.62l.06.65.05.31c0,.09.14.06.21.1l.48.09.49-.11a7.29,7.29,0,0,0,2.32-2.15c.64-.81,1.21-1.63,1.76-2.41l.4-.61s0,.09,0,.15l0,.14-.16.61c-.26,1-.55,2.06-.75,3.12a13.34,13.34,0,0,0,.16,5.47,27.49,27.49,0,0,1,.68,4.18,35.09,35.09,0,0,0,.41,3.7,7,7,0,0,0,.86,2.35,3.15,3.15,0,0,0,.22-.33l.17.31c0-.05.1-.13.15-.17,1.32-1.76,2.55-3.5,3.86-5.13a58.59,58.59,0,0,0,3.79-5.16c1.17-1.83,2.2-3.72,3.16-5.52s1.9-3.66,2.92-5.3,2-3.13,3-4.75c1-1.45,2-3.16,2.83-4.55.22-.34.44-.69.65-1s.24-.32.36-.46l.09-.11s.05-.07.12.12a2.42,2.42,0,0,1,.06.79,37,37,0,0,1-.83,4c-.3,1.28-.53,2.87.25,3.48a1.07,1.07,0,0,0,1.34.07,5.85,5.85,0,0,0,1.32-1,19,19,0,0,0,1.8-2c-.06.55-.16,1.11-.24,1.66a24.21,24.21,0,0,0-.34,2.95,22.1,22.1,0,0,0,.2,2.64,8.8,8.8,0,0,0,.61,2.29,20,20,0,0,1,.57,2.12c.32,1.47.5,3,.74,4.57a13.73,13.73,0,0,0,.51,2.17c.21.64.42,1.28.59,1.87.39,1.25.78,2.43,1.1,3.71l.46,1.88a9.56,9.56,0,0,1,.38,1.81c.09.65.15,1.33.3,2s.35,1.35,1.2,1.34l.31,0,.41-.5a4.22,4.22,0,0,0,.73-1.52,4.71,4.71,0,0,0,.1-.88v-.23h0s0,0,.08,0l.51.4a20.62,20.62,0,0,0,2,1.55,3.13,3.13,0,0,0,1.14.5,1.44,1.44,0,0,0,1-.2,4.2,4.2,0,0,0,1.37-1.51,40.5,40.5,0,0,0,1.77-4.4,57.81,57.81,0,0,0,2.6-7.55,21.17,21.17,0,0,0,.59-3.13c.12-.91.3-1.85.48-2.74s.42-1.8.62-2.63a.3.3,0,0,0,.08.14,6.33,6.33,0,0,0,.75,1.63,3.77,3.77,0,0,0,1.35.85c.35.18,1,.17,1.36-.78a4.73,4.73,0,0,0,.4-.92c.07-.24.14-.45.2-.68.2-.88.22-1.58.34-2.31.29-1.48.5-3,.94-4.45s.87-3.08,1.35-4.48,1.28-2.88,1.86-4.36.85-2.67,1.4-4c.46-1.15,1-2.38,1.49-3.67.5-1.13,1-2.24,1.45-3.3.21-.59.43-1.18.6-1.72a34.24,34.24,0,0,1,4.22,1.57c.46.23.92.46,1.33.72a2.44,2.44,0,0,0,1.69.59,3.28,3.28,0,0,0,1.77-1.08,5,5,0,0,0,.95-1.48,13.71,13.71,0,0,0,.73-2.23c.26-1.4.32-2.62.45-4,0-.78-.22-1.2-.21-1.72,0-.12,0-.25,0-.35l0-.05h0l.26.11a1.3,1.3,0,0,1,.47.46,1.78,1.78,0,0,1,.21,1.39l1.66-.48.07-.18c0-.05,0-.08,0-.07a13.5,13.5,0,0,0,.47-6.79c-.13-1-.26-2-.41-3a12.85,12.85,0,0,0-.65-2.87c-.29-.85-.57-1.73-.86-2.59a5.54,5.54,0,0,0-1.24-2.38,3.46,3.46,0,0,1-1.24-1.9,3.85,3.85,0,0,0-1.38-2,17.27,17.27,0,0,0-3.44-2.58,15.07,15.07,0,0,0-3.38-1,117.25,117.25,0,0,1,12-4.07c4.2-1.17,8.16-1.64,12.34-2.56a5.62,5.62,0,0,0,1.9-.66,2.54,2.54,0,0,0,1-1.12,1.25,1.25,0,0,0,0-.91,4.67,4.67,0,0,0-1.31-1.87,5.89,5.89,0,0,0-2.18-1.09l-.64-.14-.05,0-.17,0c-.08,0,.08-.05.12-.08a6.4,6.4,0,0,1,.79-.28,27.26,27.26,0,0,1,3.12-.73c1-.18,2.06-.31,3.09-.52.51-.13,1-.23,1.57-.41a10,10,0,0,0,2.05-.89A1.55,1.55,0,0,0,492.07,243.87Z" transform="translate(-159.21 -208.52)"/><path class="cls-2" d="M432.12,266.66l.66.74.28-.7a3.87,3.87,0,0,1-2.23.47,23.28,23.28,0,0,1-3.45-.43,18.43,18.43,0,0,0-2.05-.28l-2.4,0c-1.69,0-3.49,0-5.4.14-.9.09-2,.25-3.06.27a8.87,8.87,0,0,0-2.87.49c-1.94.71-4,2.3-6.4,3.43s-4.61,1.87-6.91,3a18.87,18.87,0,0,0-6.61,4.71s.21-.37.66-1a15.92,15.92,0,0,1,2.23-2.44,41.18,41.18,0,0,1,9.27-5.68,24,24,0,0,0,2.9-1.64,38.8,38.8,0,0,1,3.34-2,9.77,9.77,0,0,1,4-1.1c1.34,0,2.39-.08,3.8-.17a32.55,32.55,0,0,1,4,.13l4,.38a38.39,38.39,0,0,1,3.73,1.14c1.13.35,2.52.74,3.43.4l-.42,1Z" transform="translate(-159.21 -208.52)"/><path class="cls-2" d="M432.7,265.15s0,.59-.1,1.59a9.91,9.91,0,0,1-1.22,4.42A14.86,14.86,0,0,1,429.1,274c-.93,1-2,1.94-2.93,3.05a19.52,19.52,0,0,0-2.4,3.95c-.77,1.51-1.54,3.1-2.24,4.75a30,30,0,0,0-1.68,5.09,45.53,45.53,0,0,1-1.63,6.11c-.81,2.09-1.6,4.07-2.49,6.22s-1.82,4.32-2.9,6.53a68.73,68.73,0,0,1-3.61,6.61c-1.32,2.17-2.73,4.19-4.09,6.26-.67,1-1.33,2.08-2,3.16s-1.25,2.23-1.92,3.29a45.13,45.13,0,0,0-3.84,7,17.45,17.45,0,0,1,.61-1.92c.44-1.21,1.21-2.89,2.18-4.88.5-1,1-2,1.53-3.25s1.26-2.62,2-4c1.51-2.77,3.33-5.67,4.95-8.91a110.93,110.93,0,0,0,4.73-10.89c.75-1.93,1.63-4.14,2.36-6s1-3.94,1.71-6.36a39.17,39.17,0,0,1,3-7c.6-1.11,1.23-2.2,1.88-3.28a18.56,18.56,0,0,1,2.43-3.37c2-2.08,4.06-3.29,5.45-4.93S432.16,267.49,432.7,265.15Z" transform="translate(-159.21 -208.52)"/><path class="cls-2" d="M431.64,265a7.69,7.69,0,0,1,.13-.78,5.51,5.51,0,0,1,.48-1,8.07,8.07,0,0,1,1-1.33,32.13,32.13,0,0,1,8.3-6.29c.93-.52,1.92-1,2.95-1.53a35.21,35.21,0,0,1,3.3-1.4c2.48-.83,4.83-.77,7.11-1,.58-.07,1.14-.17,1.73-.29a14.75,14.75,0,0,1,2-.3,16.17,16.17,0,0,1,3.7.1c2.35.3,4.47.92,7,1.06a22.41,22.41,0,0,1-3.47.18l-3.78-.11a19.58,19.58,0,0,0-4.9.48,23.77,23.77,0,0,1-3.1.66l-3.19.37a15,15,0,0,0-3.15.69c-1.09.4-2.27.91-3.43,1.43a64.54,64.54,0,0,0-7.05,3.7,28.86,28.86,0,0,0-3.32,2.4A6.83,6.83,0,0,0,431.64,265Z" transform="translate(-159.21 -208.52)"/><path class="cls-2" d="M432.86,265.81l-.21.44a3,3,0,0,0-.36,1.27,2.33,2.33,0,0,0,.5,1.55,4.48,4.48,0,0,0,1.44,1.12,20.4,20.4,0,0,0,4.6,1.48l2.94.63c1.08.29,2,.61,3.12,1a12.73,12.73,0,0,1,6.06,3.59,25.61,25.61,0,0,0,5.12,4.53l3,2a22,22,0,0,1,2.85,2.19,23.39,23.39,0,0,0,2.78,2.15,5.09,5.09,0,0,0,3.91.86,6.5,6.5,0,0,1-1.29.33,7.24,7.24,0,0,1-2.92-.22,15.65,15.65,0,0,1-3.58-1.57c-1.28-.77-2.72-1.5-4.44-2.37a27.68,27.68,0,0,1-5.3-3.44,18,18,0,0,1-2.48-2.6,9.41,9.41,0,0,0-2.75-2.18,38.48,38.48,0,0,0-3.63-1.7l-1-.42a9.66,9.66,0,0,0-1-.36l-2.1-.75a17.13,17.13,0,0,1-4.15-2.07,5.08,5.08,0,0,1-1.71-1.91,2.88,2.88,0,0,1-.26-1.66,4.1,4.1,0,0,1,.29-1C432.49,266.39,432.67,266.09,432.86,265.81Z" transform="translate(-159.21 -208.52)"/><path class="cls-2" d="M440.46,310.1s-.08-.66-.21-1.83a20.1,20.1,0,0,0-1.26-4.75,54.85,54.85,0,0,1-1.92-7.61q-.6-2.3-1.29-4.8c-.42-1.77-.88-3.62-1.35-5.51a56.59,56.59,0,0,0-1.79-5.84c-.35-.93-.84-2-1.18-3.15a31.21,31.21,0,0,1-.87-3.64,49.65,49.65,0,0,1-.69-8.09c0-.72,0-1.43,0-2.16a14.86,14.86,0,0,1,.25-2.45,40.33,40.33,0,0,1,1.21-4.64c.21-.72.43-1.44.64-2.18a14.13,14.13,0,0,1,.8-2.49,9.11,9.11,0,0,0,.7-1.8c.1-.45,0-1.15,0-2.12.19-1.71.49-3.13.59-4.59s-.05-2.93-.07-4.46c-.2-6.14-.27-12.45-.17-18.82,0,0,.48,3,1.28,8.28.37,2.64.8,5.82,1.26,9.44.11.91.23,1.85.34,2.81a17.15,17.15,0,0,1,.13,3.25c0,1.12-.19,2.22-.27,3.29a8.4,8.4,0,0,0,.07,1.4,6.12,6.12,0,0,1-.29,2.35c-.24.75-.52,1.35-.71,1.86q-.13.38-.21.66l-.21.92c-.31,1.3-.7,2.56-1,3.79a24.69,24.69,0,0,0-.75,3.56,35.45,35.45,0,0,0-.07,3.63,50,50,0,0,0,.65,7.47,25.53,25.53,0,0,0,.81,3.5c.33,1,.84,2.31,1.18,3.54a68.78,68.78,0,0,1,1.61,7.68c.21,1.28.41,2.57.61,3.86s.47,2.49.65,3.86c.35,2.65.46,5.36.9,7.76a28.72,28.72,0,0,1,.63,3.82A29.43,29.43,0,0,1,440.46,310.1Z" transform="translate(-159.21 -208.52)"/></svg>