<svg xmlns="http://www.w3.org/2000/svg" viewBox="0 0 112.37 144.09"><defs><style>.cls-1{fill:#b84232;}.cls-2{fill:#37313f;}</style></defs><title>Middel 1</title><g id="Laag_2" data-name="Laag 2"><g id="bladeren"><path class="cls-1" d="M110.29,89a7.23,7.23,0,0,0,1.57-1.07,2.27,2.27,0,0,0,.46-.64.63.63,0,0,0,.05-.32.82.82,0,0,0-.26,0c-.06,0-.37,0-.58,0a11,11,0,0,0-1.4.19c-1.06.22-2,.45-2.93.66a20.62,20.62,0,0,1-3,.32,12.64,12.64,0,0,1-2.34-.14l-1.09-.23c-.33-.1-.85-.18-1.1-.28.7-.47,1.41-.92,2.06-1.38l1-.68.57-.43a7.06,7.06,0,0,0,1.6-1.63,9.67,9.67,0,0,0,1-2,3.69,3.69,0,0,0,.24-.88s0,0,0,0a11,11,0,0,0-2.1.29l-2.23.37c-1.46.23-3,.65-4.43.85A71.19,71.19,0,0,1,82,82.37c-.6,0-1.18-.07-1.72-.13a1.42,1.42,0,0,1-.42,0c.24-.29.52-.57.79-.84h0c.25-.26.54-.51.82-.76a21.06,21.06,0,0,0,2.2-2,16.36,16.36,0,0,0,1.73-2.37c.49-.83,1.07-1.66,1.5-2.51a7.36,7.36,0,0,0,1-2.53,9.81,9.81,0,0,1,.93-2.94,6.49,6.49,0,0,0,1-2.51c.46-1.95.84-3.76,1.23-5.45s.47-3.51.72-5.34a46.34,46.34,0,0,0,.58-6.15,5.41,5.41,0,0,1-.57.62l-.92.73a3,3,0,0,1-1.61-.91,2.7,2.7,0,0,1-.45-1.65,14.12,14.12,0,0,1,.33-2.16c.07-1.09,0-2.59,0-3.79a10,10,0,0,0-.63-3.49c-.13-.41-.49-.66-.6-.63s-.61.3-1,.69c-.67.83-1.49,1.77-2.25,2.54S83.22,42.31,82.46,43c-1.11,1-2.14,1.83-3.13,2.65a3.74,3.74,0,0,0-.5.41,9.82,9.82,0,0,0-.37-.92c-.22-.57-.46-1.13-.71-1.69a82.25,82.25,0,0,1-4.61-9.37A43,43,0,0,1,67.93,15.8a3.53,3.53,0,0,0-.26-.86s-.06-.19-.15-.1,0,0-.1.09l-.34.36-.64.73a8.51,8.51,0,0,0-1.67,3.21c-.24.47-.46.91-.64,1.37s-.27.67-.41,1c-.11-.33-.25-.65-.36-1-.29-.79-.59-1.61-.83-2.45a37.75,37.75,0,0,1-1.26-5.67,26,26,0,0,0-1.81-5.33c-.74-1.77-1.7-3.2-2.6-5.1a6.9,6.9,0,0,0-1.18-2c-.08,0,0-.08-.31.1a3.57,3.57,0,0,0-.78.78,53.66,53.66,0,0,0-3.13,4.51c-.62.91-.76,1.23-2.09,2.95-1.09,1.4-2,2.29-3.15,3.52v-.67c-.15.66-.31,1.29-.44,1.91-.65,2.78-1.42,5.54-2.14,8.1a37.88,37.88,0,0,0-1.36,7.26,37.4,37.4,0,0,1-1.48,6.39,18.51,18.51,0,0,0-.35,2.74,9.52,9.52,0,0,0,0,2.46c.25,1.42.6,2.67.71,3.74a1.09,1.09,0,0,1,0,.26,2.32,2.32,0,0,1,0,.24L41,44.17v0a1.73,1.73,0,0,1-.32-.14,9.86,9.86,0,0,0-2.4-.77,1.93,1.93,0,0,0-2,.53c-.88,1.24.13,2.92.87,4.42a10.42,10.42,0,0,1,1,2.58A2.72,2.72,0,0,1,38,52.42l-.25.54-.13.26a1.43,1.43,0,0,1-.29,0,6.59,6.59,0,0,1-1-.37c-1.7-.87-2.82-2.15-4.2-3S29.41,48,28,47c-2.71-1.77-4.85-4.09-7.14-5.75A25.19,25.19,0,0,0,14,37.51C11.83,36.65,9.93,35.69,8.3,35c0,0,0,0-.06,0A8.55,8.55,0,0,0,8,37.1c-.12,2.06.58,4.09.67,6.32s-.13,4.32.67,6.11a16.66,16.66,0,0,0,1.58,2.59l.46.65A8.43,8.43,0,0,1,12,54a19.23,19.23,0,0,1,.91,2.39c-.61-.19-1.24-.42-1.82-.62a7.42,7.42,0,0,1-1-.41l-.84-.4c-.71-.31-1.4-.63-2.07-.9-1.3-.61-3.15-.68-2.58-.32a27.83,27.83,0,0,0,3.22,7.84c1.31,2.47,2.57,4.81,4,6.89a36,36,0,0,0,4.53,5.29c.75.8,1.47,1.6,2.16,2.22a18.44,18.44,0,0,0,2.26,1.58,15.12,15.12,0,0,1,2.7,2.26c.27.25.52.54.75.79a3.75,3.75,0,0,1-.39.1c-1.38.27-2.72.56-4,.93-5,1.31-10.27,2.8-15.26,3.62a16.62,16.62,0,0,0-1.76.49c-.3.12-.57.21-.84.33s-.1.07-.15.08,0,.12.08.16a7.46,7.46,0,0,0,1.34,1c2.05,1.41,4.36,2.3,6.59,4.13a4.77,4.77,0,0,1,.83,1,1.65,1.65,0,0,1,.25.87,1.26,1.26,0,0,1-.11.86A2.49,2.49,0,0,1,9.7,95.54a5.44,5.44,0,0,1-1,.46,26.4,26.4,0,0,1-3.76.93,25,25,0,0,1-3.74.41l-1.06,0H0s0,.08.06.1,0,0,.08.07l.49.36,1,.67a17.31,17.31,0,0,1,2,1.56l1.67,1.65a34.7,34.7,0,0,0,3.26,3,33.29,33.29,0,0,0,3.72,2.11c2.52,1.37,4.79,2.86,7,3.46a23.9,23.9,0,0,0,5.15.6s0,0,.06,0c.53,0,1.05,0,1.56,0,.33,0,.67,0,1,0,1.46.16,3,.13,4.44.19l.91.07c4.17.34,8.16,1.22,12,1.46A76.88,76.88,0,0,0,56.31,112c2.74-.32,5.34-.32,7.75-.41,0,0,.07,0,.1,0l1.15-.38c1.92-.57,3.73-1.29,5.58-1.9l5.41-1.87c1.55-.67,3.23-1.61,4.81-2.38s3-1.82,4.6-2.55a19.05,19.05,0,0,1,2.37-1,14.91,14.91,0,0,0,2.06-1c1.34-.75,2.57-1.64,3.82-2.42a20.06,20.06,0,0,1,3.8-1.89,23.55,23.55,0,0,0,3.33-1.49,14.28,14.28,0,0,0,2.47-2c.44-.42.86-.83,1.24-1.23l.72-.7.12-.1a8.64,8.64,0,0,1,.85-.31h0A22.52,22.52,0,0,0,110.29,89Z"/><path class="cls-2" d="M11.48,85.51s.34.15.91.47l2.41,1.43c1,.62,2.3,1.38,3.8,2.13a43.33,43.33,0,0,0,5.27,2.06l6.31,2.14a62.91,62.91,0,0,1,6.88,2.59c2.35,1,4.79,2.11,7.21,3.24,1.21.58,2.51,1.06,3.69,1.72s2,1.89,3.32,2.24a5.08,5.08,0,0,1-.79-.44,18.72,18.72,0,0,1-2-1.83,24.74,24.74,0,0,0-3.76-2.15c-1.47-.77-3.13-1.65-5-2.52s-3.85-1.85-6.08-2.7-4.62-1.51-7.08-2.31S21.49,90.11,19,89.09c-1.25-.54-2.48-1.15-3.72-1.77A41.06,41.06,0,0,0,11.48,85.51Z"/><path class="cls-2" d="M51.36,64.68l.54,1.81a30.75,30.75,0,0,1,.87,5.16,52.27,52.27,0,0,1,0,8c-.18,3.07-.57,6.51-1,10.27-.22,2-.44,3.94-.66,5.9s-.36,4.18-.53,6.28a111.22,111.22,0,0,1-2.33,13.24c-1.05,4.57-2.33,9.27-3.59,14.08s-2.43,9.71-3.55,14.68c0,0,.93-2.32,2.41-6.4s3.71-9.9,5.94-17.15a104.91,104.91,0,0,0,3-12c.42-2.17.69-4.43.92-6.75s.28-4.61.43-7c.32-4.73.77-9.69.68-14.82S53.8,69.52,51.36,64.68Z"/><path class="cls-2" d="M51.22,102.88l.13-.77a12.63,12.63,0,0,1,.47-2.1,12,12,0,0,1,.47-1.44l.7-1.63a27.48,27.48,0,0,1,2.23-3.6,54.45,54.45,0,0,1,7.29-7.69c2.92-2.61,6.2-5.27,9.32-8.15l.21.37-.92.5,1-.36-.36-.63c-1.5,1.11-5.39,3.58-10,7.48a40.24,40.24,0,0,0-6.89,7.36,21.44,21.44,0,0,0-2.62,5,14.78,14.78,0,0,0-.73,2.8A17.66,17.66,0,0,0,51.22,102.88Z"/><path class="cls-2" d="M53.11,84.46s0-.38-.14-1a7.51,7.51,0,0,1,.54-2.65,36,36,0,0,1,4.94-7.93c1.16-1.55,2.45-3.2,3.75-5a38.23,38.23,0,0,0,3.43-6.21,53.8,53.8,0,0,0,3-6.87A28.17,28.17,0,0,0,69.52,51a7.25,7.25,0,0,0,0-3.68,3.47,3.47,0,0,1,.08.78,10.36,10.36,0,0,1-.43,2.42,34.28,34.28,0,0,1-1.31,3.73,43,43,0,0,1-2.28,4.68l-2.86,5.5a68.12,68.12,0,0,1-3.83,5.74,65.94,65.94,0,0,0-4.09,6.42,19.32,19.32,0,0,0-1.57,3.69A6.39,6.39,0,0,0,53.11,84.46Z"/></g></g></svg>